<svg width="246" height="207" viewBox="0 0 246 207" fill="none" xmlns="http://www.w3.org/2000/svg">
<path d="M88.2129 197.358C85.2438 205.671 78.228 204.686 71.0558 201.505C60.9103 197.003 47.4163 176.456 46.0783 166.76C44.8501 157.862 48.0314 150.893 54.9592 149.987" fill="white"/>
<path d="M88.2129 197.358C85.2438 205.671 78.228 204.686 71.0558 201.505C60.9103 197.003 47.4163 176.456 46.0783 166.76C44.8501 157.862 48.0314 150.893 54.9592 149.987" stroke="black" stroke-width="4.99999" stroke-linecap="round" stroke-linejoin="round"/>
<path d="M54.5896 77.1057C43.7838 79.4499 49.7786 96.5649 58.878 113.278C62.4112 119.767 52.4161 146.263 58.5752 163.138C62.5819 174.116 77.6337 194.164 88.2379 196.927C106.395 201.658 122.347 198.561 138.295 190.078C143.948 187.071 149.72 182.792 154.053 178.819C168.281 165.774 215.414 149.597 218.421 145.465C226.778 133.985 210.527 126.708 201.59 129.69C197.261 131.135 164.255 138 168.653 134.317C179.456 125.269 193.55 115.68 207.376 107.385C228.065 94.972 202.382 72.8555 183.129 84.677C174.11 90.2148 165.928 93.7784 146.09 106.609C153.478 95.6338 163.495 79.1359 171.878 69.5283C185.7 53.6853 157.345 38.4286 140.852 58.1544C129.62 71.588 112.03 98.0061 87.9046 115.664C88.1125 100.558 87.1842 70.0331 54.5912 77.1033L54.5896 77.1057Z" fill="white" stroke="black" stroke-width="4.99999" stroke-linecap="round" stroke-linejoin="round"/>
<path d="M144.752 104.14C134.998 116.86 132.902 125.62 131.361 129.496C137.26 121.354 138.539 119.132 145.487 110.921C146.665 109.529 148.269 108.101 150.489 106.682L144.752 104.14Z" fill="black"/>
<path d="M167.01 132.434C159.809 138.473 152.574 147.484 149.315 154.659C153.197 151.304 159.819 145.48 165.619 140.265C167.193 138.85 168.944 137.972 171.948 137.766C169.936 136.344 168.548 134.324 167.009 132.434L167.01 132.434Z" fill="black"/>
<path d="M87.8602 182.066C100.245 178.423 102.863 176.204 108.532 173.54" stroke="black" stroke-width="4.99999" stroke-linecap="round" stroke-linejoin="round"/>
<path d="M79.9169 173.637C92.2024 166.358 97.4234 161.701 105.165 156.107" stroke="black" stroke-width="4.99999" stroke-linecap="round" stroke-linejoin="round"/>
<path d="M70.7406 163.296C78.4477 157.201 81.5166 153.61 86.0227 149.243" stroke="black" stroke-width="4.99999" stroke-linecap="round" stroke-linejoin="round"/>
</svg>
