<svg width="285" height="78" viewBox="0 0 285 78" fill="none" xmlns="http://www.w3.org/2000/svg">
<path d="M0.9375 2.10938H14.9062C24.2188 2.10938 30.5156 2.46875 33.7969 3.1875C37.1094 3.90625 39.7969 5.75 41.8594 8.71875C43.9531 11.6563 45 16.3594 45 22.8281C45 28.7344 44.2656 32.7031 42.7969 34.7344C41.3281 36.7656 38.4375 37.9844 34.125 38.3906C38.0312 39.3594 40.6562 40.6562 42 42.2812C43.3438 43.9062 44.1719 45.4062 44.4844 46.7812C44.8281 48.125 45 51.8594 45 57.9844V78H26.6719V52.7812C26.6719 48.7188 26.3438 46.2031 25.6875 45.2344C25.0625 44.2656 23.3906 43.7812 20.6719 43.7812V78H0.9375V2.10938ZM20.6719 15.0938V31.9688C22.8906 31.9688 24.4375 31.6719 25.3125 31.0781C26.2188 30.4531 26.6719 28.4688 26.6719 25.125V20.9531C26.6719 18.5469 26.2344 16.9688 25.3594 16.2188C24.5156 15.4688 22.9531 15.0938 20.6719 15.0938ZM52.6875 2.10938H85.5938V17.2969H72.4219V31.6875H84.75V46.125H72.4219V62.8125H86.9062V78H52.6875V2.10938ZM126.703 2.10938L138 78H117.797L116.812 64.3594H109.734L108.562 78H88.125L98.1562 2.10938H126.703ZM116.25 50.9062C115.25 42.3125 114.25 31.7031 113.25 19.0781C111.25 33.5781 110 44.1875 109.5 50.9062H116.25ZM141.375 2.10938H156.141C165.672 2.10938 172.109 2.54687 175.453 3.42188C178.828 4.29688 181.391 5.73437 183.141 7.73438C184.891 9.73438 185.984 11.9687 186.422 14.4375C186.859 16.875 187.078 21.6875 187.078 28.875V55.4531C187.078 62.2656 186.75 66.8281 186.094 69.1406C185.469 71.4219 184.359 73.2188 182.766 74.5312C181.172 75.8125 179.203 76.7188 176.859 77.25C174.516 77.75 170.984 78 166.266 78H141.375V2.10938ZM161.109 15.0938V65.0156C163.953 65.0156 165.703 64.4531 166.359 63.3281C167.016 62.1719 167.344 59.0625 167.344 54V24.5156C167.344 21.0781 167.234 18.875 167.016 17.9062C166.797 16.9375 166.297 16.2344 165.516 15.7969C164.734 15.3281 163.266 15.0938 161.109 15.0938ZM236.484 2.10938L222.094 50.5312V78H203.812V50.5312L189.938 2.10938H208.078C210.922 16.8906 212.516 26.8438 212.859 31.9688C213.953 23.875 215.781 13.9219 218.344 2.10938H236.484ZM258.844 26.5781H239.906C239.969 19.9219 240.531 15.0625 241.594 12C242.656 8.9375 244.953 6.26563 248.484 3.98438C252.047 1.67188 256.578 0.515625 262.078 0.515625C266.047 0.515625 269.516 1.14062 272.484 2.39062C275.453 3.64063 277.812 5.39062 279.562 7.64062C281.312 9.85937 282.594 12.2656 283.406 14.8594C284.219 17.4531 284.625 21.5156 284.625 27.0469V36.3281C284.625 40.5469 284.234 43.9375 283.453 46.5C282.672 49.0625 280.969 51.3125 278.344 53.25C275.719 55.1875 272.641 56.1562 269.109 56.1562C264.516 56.1562 261.094 54.3594 258.844 50.7656V58.9219H241.172V38.0625H258.422C258.484 40.9375 259.516 42.375 261.516 42.375C263.078 42.375 264.062 41.75 264.469 40.5C264.906 39.2188 265.125 36.1094 265.125 31.1719V18.5625C265.125 15.7812 264.922 13.9219 264.516 12.9844C264.141 12.0156 263.375 11.5312 262.219 11.5312C260.781 11.5312 259.859 12.1719 259.453 13.4531C259.047 14.7031 258.844 17.5469 258.844 21.9844V26.5781ZM258.844 62.8125V78H241.172V62.8125H258.844Z" fill="black"/>
</svg>
