<svg width="146" height="132" viewBox="0 0 146 132" fill="none" xmlns="http://www.w3.org/2000/svg">
<path d="M127.678 86.5542C135.82 89.8942 139.739 84.0148 142.156 76.5498C145.573 65.9894 139.266 42.2301 132.955 34.7622C127.118 27.9153 119.892 25.6214 114.516 30.1899" fill="white"/>
<path d="M127.678 86.5542C135.82 89.8942 139.739 84.0148 142.156 76.5498C145.573 65.9894 139.266 42.2301 132.955 34.7622C127.118 27.9153 119.892 25.6214 114.516 30.1899" stroke="black" stroke-width="4.99983" stroke-linecap="round" stroke-linejoin="round"/>
<path d="M59.8118 12.5185C78.7279 8.41355 111.507 21.5425 121.966 41.6468C127.251 52.0473 132.306 76.5512 127.263 86.298C118.719 102.978 105.707 112.797 88.7523 119.022C82.7464 121.22 75.7453 122.656 69.8543 123.24C45.8124 125.822 26.8673 121.14 27.0229 104.423C6.68724 102.589 6.52724 71.6725 21.4328 69.1315C1.65057 56.516 14.2042 31.5307 36.3659 37.4168C38.5047 33.5749 40.1737 16.7866 59.8118 12.5185V12.5185Z" fill="white" stroke="black" stroke-width="4.99983" stroke-linecap="round" stroke-linejoin="round"/>
<path d="M22.5439 71.5478C38.3973 73.9021 44.3683 70.9812 48.5562 70.4677C38.5371 69.2462 35.9664 69.2035 25.4206 67.1143C23.6269 66.7568 21.7813 66.2054 19.5933 64.6616L19.6918 72.2733C19.3344 72.3832 21.4024 71.5529 22.5433 71.5479L22.5439 71.5478Z" fill="black"/>
<path d="M25.4553 106.696C34.8543 107.072 46.4526 106.468 53.6812 103.351C48.5098 103.22 35.1626 101.994 27.3722 101.953C27.3721 101.937 27.3886 101.966 25.4548 106.696L25.4553 106.696Z" fill="black"/>
<path d="M116.523 76.0899C105.52 82.8883 102.105 83.3617 96.3864 85.7994" stroke="black" stroke-width="4.99983" stroke-linecap="round" stroke-linejoin="round"/>
<path d="M115.543 64.5495C101.895 68.8511 94.9142 69.6374 85.639 71.6637" stroke="black" stroke-width="4.99983" stroke-linecap="round" stroke-linejoin="round"/>
<path d="M113.962 50.8153C104.257 52.4953 99.502 52.3908 93.3367 52.8193" stroke="black" stroke-width="4.99983" stroke-linecap="round" stroke-linejoin="round"/>
<path d="M34.7421 34.8347C55.8976 36.2914 62.9262 28.8132 72.5973 23.039C62.9048 31.0098 60.623 40.0975 36.1434 39.9137L34.7421 34.8347V34.8347Z" fill="black"/>
</svg>
