<svg width="202" height="154" viewBox="0 0 202 154" fill="none" xmlns="http://www.w3.org/2000/svg">
<path d="M14.4172 63.0059C5.729 64.4068 3.24988 57.7901 2.59343 49.9707C1.66781 38.9097 13.2136 17.207 21.0575 11.3699C28.2988 6.02972 35.8571 5.43931 40.0534 11.1109" fill="white"/>
<path d="M14.4172 63.0059C5.729 64.4068 3.24988 57.7901 2.59343 49.9707C1.66781 38.9097 13.2136 17.207 21.0575 11.3699C28.2988 6.02972 35.8571 5.43931 40.0534 11.1109" stroke="black" stroke-width="4.99993" stroke-linecap="round" stroke-linejoin="round"/>
<path d="M97.3443 6.34336C79.857 -1.95613 44.9503 3.37413 30.1932 20.5735C22.681 29.4996 12.185 52.2121 14.8799 62.8508C19.4066 81.0371 29.8445 93.5581 44.9397 103.476C50.2883 106.983 56.7797 109.973 62.3836 111.882C82.9956 118.605 101.07 107.995 108.373 103.299C121.503 108.432 136.684 116.189 150.603 124.334C171.423 136.517 178.488 103.371 158.868 92.1573C149.683 86.9084 142.623 81.4412 121.843 70.2025C135.022 71.4144 154.304 72.2767 166.752 75.0133C187.291 79.531 187.051 47.3311 161.826 42.3365C144.647 38.9364 130.911 39.0848 114.514 35.922C113.305 31.6943 115.497 14.966 97.3443 6.34336Z" fill="white" stroke="black" stroke-width="4.99993" stroke-linecap="round" stroke-linejoin="round"/>
<path d="M123.334 67.829C107.493 65.3839 98.8079 67.753 94.6166 68.2426C104.629 69.5215 107.199 69.5789 117.733 71.7284C119.525 72.0961 121.545 72.8155 123.86 74.0824L123.334 67.829V67.829Z" fill="black"/>
<path d="M109.205 100.94C100.442 97.5204 89.069 95.5046 81.2182 96.095C90.7855 99.6047 98.3426 102.366 107.534 105.497C107.544 105.473 108.278 103.193 109.201 100.938L109.205 100.94Z" fill="black"/>
<path d="M27.6604 55.3526C36.8291 64.4752 40.0471 65.7129 45.0611 69.3873" stroke="black" stroke-width="4.99993" stroke-linecap="round" stroke-linejoin="round"/>
<path d="M31.2391 44.3372C43.5513 51.6301 50.1704 53.9834 58.742 58.0661" stroke="black" stroke-width="4.99993" stroke-linecap="round" stroke-linejoin="round"/>
<path d="M35.9025 31.3222C44.9712 35.1654 49.6252 36.145 55.5316 37.9645" stroke="black" stroke-width="4.99993" stroke-linecap="round" stroke-linejoin="round"/>
<path d="M116.682 33.7768C95.7494 30.384 90.6056 21.5031 82.5009 13.6807C90.1269 23.647 90.2821 33.0158 114.163 38.4041L116.682 33.7768V33.7768Z" fill="black"/>
</svg>
